<?xml version="1.0" encoding="utf-8"?>
<!-- Generator: Adobe Illustrator 19.1.0, SVG Export Plug-In . SVG Version: 6.00 Build 0)  -->
<svg version="1.1" id="Layer_1" xmlns="http://www.w3.org/2000/svg" xmlns:xlink="http://www.w3.org/1999/xlink" x="0px" y="0px"
	 viewBox="7 197 400 400" style="enable-background:new 7 197 400 400;" xml:space="preserve">
<style type="text/css">
	.st0{fill:#DB4437;}
</style>
<path class="st0" d="M135,379.7v44h72.6c-2.9,18.9-22,55.4-72.6,55.4c-43.7,0-79.3-36.3-79.3-81s35.7-81,79.3-81
	c24.9,0,41.5,10.7,51,19.8l34.7-33.5c-22.3-20.9-51.1-33.6-85.8-33.6C64.3,269.7,7,327.1,7,398s57.3,128.3,128,128.3
	c73.9,0,122.9-52.1,122.9-125.4c0-8.4-0.9-14.8-2-21.2H135L135,379.7z M407,378.8h-36.5v-36.5h-36.4v36.5h-36.5v36.4h36.5v36.5h36.4
	v-36.5H407"/>
</svg>
