<?xml version="1.0" encoding="utf-8"?>
<!-- Generator: Adobe Illustrator 19.1.0, SVG Export Plug-In . SVG Version: 6.00 Build 0)  -->
<svg version="1.1" id="Layer_1" xmlns="http://www.w3.org/2000/svg" xmlns:xlink="http://www.w3.org/1999/xlink" x="0px" y="0px"
	 viewBox="7 197 400 400" style="enable-background:new 7 197 400 400;" xml:space="preserve">
<style type="text/css">
	.st0{fill:#D9264A;}
</style>
<path class="st0" d="M235.1,439.4c-6.1,6.1-0.9,17.3-0.9,17.3l45.8,76.4c0,0,7.5,10.1,14,10.1s13-5.4,13-5.4l36.2-51.7
	c0,0,3.6-6.5,3.7-12.2c0.1-8.1-12.1-10.4-12.1-10.4L249.1,436C249.1,435.9,240.7,433.7,235.1,439.4L235.1,439.4z M230.7,400.8
	c4.4,7.4,16.5,5.3,16.5,5.3l85.5-25c0,0,11.6-4.7,13.3-11.1c1.6-6.3-1.9-13.9-1.9-13.9L303.2,308c0,0-3.5-6.1-10.9-6.7
	c-8.1-0.7-13.1,9.1-13.1,9.1l-48.3,76C231,386.4,226.7,394,230.7,400.8L230.7,400.8z M190.4,371.2c10.1-2.5,11.7-17.1,11.7-17.1
	l-0.7-121.7c0,0-1.5-15-8.3-19.1c-10.6-6.4-13.7-3.1-16.7-2.6l-71,26.4c0,0-6.9,2.3-10.6,8.1c-5.2,8.2,5.3,20.2,5.3,20.2L173.8,366
	C173.8,366,181.1,373.5,190.4,371.2L190.4,371.2z M172.8,420.5c0.3-9.4-11.3-15-11.3-15L85.2,367c0,0-11.3-4.7-16.8-1.4
	c-4.2,2.5-7.9,7-8.3,11l-5,61.2c0,0-0.7,10.6,2,15.4c3.9,6.8,16.7,2.1,16.7,2.1l89.1-19.7C166.4,433.1,172.5,432.9,172.8,420.5
	L172.8,420.5z M195,453.5c-7.6-3.9-16.8,4.2-16.8,4.2l-59.6,65.6c0,0-7.4,10-5.5,16.2c1.8,5.8,4.7,8.6,8.9,10.7l59.9,18.9
	c0,0,7.3,1.5,12.8-0.1c7.8-2.3,6.4-14.5,6.4-14.5l1.4-88.9C202.3,465.6,202,457.1,195,453.5L195,453.5z"/>
</svg>
